HIERARCHY
ROOT Hips
{
  OFFSET 0.0 0.0 0.0
  CHANNELS 6 XPOSITION YPOSITION ZPOSITION ZROTATION XROTATION YROTATION 
  JOINT RightUpLeg
  {
    OFFSET -0.089458 -0.0866707 0.00101652
    CHANNELS 3 ZROTATION XROTATION YROTATION 
    JOINT RightLeg
    {
      OFFSET 0.0 -0.444227 0.013727
      CHANNELS 3 ZROTATION XROTATION YROTATION 
      JOINT RightFoot
      {
        OFFSET 0.00253549 -0.420924 -0.0146059
        CHANNELS 3 ZROTATION XROTATION YROTATION 
        End Site
        {
          OFFSET 0.0004 -0.0441509 0.084991
        }
      }
    }
  }
  JOINT Spine
  {
    OFFSET 0.0 0.118905 0.0
    CHANNELS 3 ZROTATION XROTATION YROTATION 
    JOINT Spine1
    {
      OFFSET 0.0 0.256574 0.00127663
      CHANNELS 3 ZROTATION XROTATION YROTATION 
      End Site
      {
        OFFSET -0.0029 0.2150836 0.02525291
      }
      JOINT RightArm
      {
        OFFSET -0.162727 -0.05365632 0.00102123
        CHANNELS 3 ZROTATION XROTATION YROTATION 
        JOINT RightForeArm
        {
          OFFSET -0.26364 0.00099144 -0.0142434
          CHANNELS 3 ZROTATION XROTATION YROTATION 
          End Site
          {
            OFFSET -0.220324 0.00085362 0.0102216
          }
        }
      }
      JOINT LeftArm
      {
        OFFSET 0.162727 -0.0536563199 0.00102123
        CHANNELS 3 ZROTATION XROTATION YROTATION 
        JOINT LeftForeArm
        {
          OFFSET 0.262597 0.00099144 -0.0142434
          CHANNELS 3 ZROTATION XROTATION YROTATION 
          End Site
          {
            OFFSET 0.220902 0.00085362 0.0102216
          }
        }
      }
    }
  }
  JOINT LeftUpLeg
  {
    OFFSET 0.089458 -0.0866707 0.00101652
    CHANNELS 3 ZROTATION XROTATION YROTATION 
    JOINT LeftLeg
    {
      OFFSET 0.0 -0.444227 0.013727
      CHANNELS 3 ZROTATION XROTATION YROTATION 
      JOINT LeftFoot
      {
        OFFSET -0.00253549 -0.420924 -0.0146059
        CHANNELS 3 ZROTATION XROTATION YROTATION 
        End Site
        {
          OFFSET -0.0004 -0.0441509 0.084991
        }
      }
    }
  }
}
MOTION
Frames: 16
Frame Time: 0.033333
1.6674022081 1.09711725175 -1.10782775375 3.90318886772 1.36124410842 82.610297898 1.65826523649 -20.2577468518 5.19149445321 -1.20312234765 53.3364691154 -12.5728363468 4.16381607984 -37.0636356254 1.50331599186 -10.0033943131 10.1966502468 -1.29431134949 4.02525288592 3.93929837031 -2.99001861578 72.5618943458 -24.1532120562 1.28480874208 6.24157542017 56.4540030941 9.75046216286 -107.350008053 -46.8026589289 -43.5686429041 -166.367261614 76.2705846123 161.860170045 -7.11596086979 -6.4790453028 -0.200109721704 0.281522254898 21.3077501254 12.5973849004 -9.19533256165 -46.1940241871 -9.19584653339 
1.69103117947 1.10006087355 -1.10794973905 3.95348638077 1.04934501408 82.5260065335 2.12786710219 -21.9518813603 5.05491286793 -1.03656231505 47.999540298 -13.0955575542 4.14850919902 -36.8006118706 1.48530777123 -10.5548339046 10.7381391065 -1.69566276335 4.8905524764 3.80592654705 -3.6735489432 70.3779208682 -24.6462048652 -1.23508058933 5.71708946268 55.234694799 10.3474505784 -106.741404047 -44.595425242 -44.8769144132 -171.647708182 78.4588337884 165.746752589 -6.84455476538 -4.2504104988 0.224974771914 0.218189139056 20.2537033798 12.256158041 -9.72958568966 -47.0270408885 -9.46486634045 
1.71515290803 1.10133580945 -1.10797640932 3.95792301552 0.847393715958 82.4755997374 2.25952134631 -23.0151147103 4.33964948163 -0.944775351493 41.2348116609 -12.2525209653 4.46606347656 -36.530515455 1.45710559998 -10.8432249819 11.1811417609 -2.052340151 5.372563195 3.62459313544 -4.19601231093 68.3312000419 -25.3913289848 -3.6145480616 5.33697876319 54.5267559368 10.701674434 -106.322351451 -42.8332842475 -46.2118680563 -179.302560732 80.4318227226 172.193126108 -6.74386454353 -2.23430706266 0.439482278925 0.200955758027 19.5450131968 12.0796761981 -10.107863764 -47.9938712409 -9.76771009806 
1.74042116027 1.10085435111 -1.10766296589 3.89058247295 0.820037100785 82.3501359926 2.21944307693 -23.5386145592 3.67089071895 -0.84915814592 33.7278224612 -10.6436810053 5.13950860278 -36.7258281294 1.4537908238 -11.0134930602 11.3124145817 -2.30364863722 5.59965930094 3.49852193062 -4.50633427191 66.303521783 -26.6163199974 -5.86447043081 5.2106475843 54.3499325844 10.5893391665 -106.09520668 -41.3773201429 -47.5344693023 172.008833944 81.8752261094 179.88774402 -6.92964953093 -0.276676155641 0.298201203325 0.256399058222 18.8740188278 12.2747515235 -10.4290764616 -48.9158170053 -10.0661919261 
1.76697698041 1.09908578701 -1.10686231752 3.71743888503 0.849252221104 82.5449193273 2.06068045231 -23.6178345083 3.3819547206 -0.710623339975 26.1847971833 -9.6400205653 5.75575132159 -37.2622267906 1.48188403218 -11.0758040222 11.1715897414 -2.60767978053 5.782760024 3.43150048595 -4.8260669529 64.3049128092 -27.785547638 -7.84701138458 5.30037236434 54.8839167737 10.2202050079 -105.750855863 -39.9560192483 -48.4294460647 160.966835943 82.677561601 -169.781413633 -7.17654464773 1.47465267612 0.0509032087541 0.472437408061 18.5644370886 12.2519352766 -10.9454763289 -49.8216435232 -10.3981476575 
1.79496693611 1.0963280915 -1.10543815053 3.51596964886 0.940488980902 83.0883974796 1.81581134038 -23.6836741168 3.16313061407 -0.748013503039 20.2336260387 -9.30196889007 5.68571413495 -38.006857429 1.54814423093 -11.1864855302 10.9323512667 -2.91168680473 6.12521375615 3.36395397048 -5.18134308456 62.474688489 -28.6697736826 -9.53739868057 5.54710569103 55.740688873 9.73471174664 -105.412857121 -38.5767615832 -48.9320216291 150.656364863 82.9956093597 -159.830961824 -7.37053141167 3.13752146011 0.0666265009916 0.757075990129 18.5541542388 11.6646252391 -11.5838591059 -50.7130651722 -10.7616008063 
1.82434534807 1.09299762355 -1.10317447032 3.30661730716 1.09231437448 83.672754314 1.516971461 -24.211461617 2.69604983523 -0.75584730313 17.5962424058 -8.63446389399 5.94987981195 -38.7694685404 1.61189476205 -11.3752847655 10.60675188 -3.07663864795 6.59643704473 3.39016973062 -5.44571281346 61.0174403088 -29.6437074319 -10.9126658077 5.83550573298 56.5664792343 9.12986861355 -105.110505137 -37.3720562325 -49.0643975254 143.264297011 83.1254034445 -152.641859873 -7.40456539053 4.78662901374 0.318852973972 0.880763885809 18.688944607 10.726006983 -12.37793263 -51.416513185 -11.1112287984 
1.85511326073 1.09016462355 -1.10016912993 3.05657112528 1.05165778016 84.3267107761 1.51898914157 -25.0760713584 2.29967496123 -0.674399058186 18.2019128456 -8.20920350966 6.02662552501 -39.1020133756 1.6516316287 -11.1673695383 10.2498540053 -3.22043547432 6.95983854018 3.52401689236 -5.67969759206 60.0649772592 -30.8424978388 -11.8586094417 6.14944043714 57.2357421503 8.37742423873 -104.684478918 -36.4904051691 -48.7599315979 139.557075235 83.2543164349 -149.156687547 -7.02405640564 6.36651025226 0.676679914482 0.945511197655 19.0273446219 9.49868346081 -13.2854564499 -51.7966097972 -11.3884448324 
1.88707592196 1.08912095047 -1.09687859861 2.78898245629 0.581907731375 85.039550299 2.1864250887 -25.960693554 2.31272830651 -0.494672128409 20.412343061 -9.69199915866 3.81263037772 -38.1430274954 1.58828450563 -10.2458865192 9.91045763662 -3.3651424234 7.2816339383 3.75430184287 -5.89554053446 59.611910321 -31.827551136 -12.3106381912 6.50185514642 57.561699268 7.63335367584 -105.146213366 -36.4478394302 -48.5465086769 145.134061296 82.6720154874 -154.723510287 -6.18185566116 7.91828270103 0.916005527492 1.14022036082 19.4458866614 8.20453422159 -14.4891722769 -51.5824082346 -11.518175738 
1.91998412565 1.08924870207 -1.09343517734 2.65551565071 -0.0426620719223 85.6244603788 3.22439207484 -26.5568119742 2.65663665551 -0.369629293953 23.1064104338 -11.4894624765 1.36692405105 -36.3806645197 1.53758988112 -8.83660761135 9.67792555388 -3.39586376051 7.40894012669 3.86267602754 -5.8945642443 59.7918789755 -32.5283558656 -12.0131347877 7.11147599683 57.7895065674 6.61970237659 -106.779031559 -37.4455115019 -48.4652669918 156.632220311 80.9285277395 -165.758568816 -5.20167485017 9.20448672269 0.867418443223 1.30523164803 20.5589052602 7.32936244645 -16.1562028873 -50.6457980541 -11.4441817374 
1.95308945798 1.08941188797 -1.08942197013 2.78395501018 -0.448427265416 86.1540390961 3.86374068328 -26.6248133376 2.5565848429 -0.406557672196 26.1923428348 -11.6611751398 0.663009771106 -35.3664872959 1.53034518484 -7.70030062876 9.70598311721 -3.40524566567 7.4891735051 3.8158448355 -5.83863225207 60.8541441461 -33.2564096348 -10.6644020917 7.89963799214 58.3292827572 5.29677840417 -108.264952873 -38.9164029849 -47.8749644777 165.57818352 79.0305479427 -173.884362909 -4.24193764913 9.60978246407 0.715799342706 1.15629659841 23.5434657011 6.67544739238 -17.5954057077 -48.6942627441 -10.9159408834 
1.98551008087 1.08945172611 -1.08449581731 3.00026752808 -0.7031559155 86.9381721335 3.95034107865 -26.1873977779 1.53075435586 -0.40597107634 29.382882998 -11.0877559995 0.361304814139 -35.9084901273 1.55903582134 -7.05152657271 9.79416939713 -3.46147989376 7.73524302278 3.81442287549 -5.86692417627 62.6860213721 -33.8917811522 -8.63906231885 8.35765425618 58.911235365 4.47186742981 -108.906833561 -40.3030918959 -46.7112709978 172.72754743 77.5819194613 179.990511046 -3.10615595078 8.55364568064 1.17824509115 0.877308130254 28.7198048183 5.62433720129 -17.527412882 -45.1424789983 -9.60174930784 
2.01679998188 1.08920101778 -1.07900757756 3.10274918049 -1.01845494995 87.8718999742 4.15100990203 -25.3208807062 0.390098783926 -0.448633451752 32.0775667954 -10.7862612043 -0.0654255816468 -37.9486676324 1.61938043593 -6.16083447333 9.75399080934 -3.43779813381 7.77579727098 3.7762041251 -5.68879198894 64.9101358715 -33.9469964014 -6.491057898 8.23012267155 58.587689304 4.74672875616 -109.300587137 -41.7241195829 -45.5684505761 -179.749432689 75.9712037606 173.691533009 -1.73680622208 6.14128946014 2.13594038578 0.830976182349 35.1995233216 4.80330107862 -15.9315323523 -40.1865756988 -7.86682064072 
2.04672883681 1.08927298893 -1.07345514227 3.16290500439 -1.48874922607 88.4281232595 4.91999400682 -23.9918437144 0.13819481727 -0.548343221299 33.8014109193 -11.2845277731 -0.298746070994 -40.5492177626 1.67621945594 -4.82729980204 9.75497777168 -3.25011221938 7.58416521475 3.68473337797 -5.22278824555 67.4110642776 -33.5354877492 -3.88327417053 7.90826195974 57.7475213946 5.41684971469 -109.897156349 -43.6309171539 -44.6740782854 -173.220837352 73.9860434293 168.560489998 -0.328446988517 3.10216455898 2.83652847032 0.908812377801 41.6293711987 4.9784284096 -13.7790981269 -35.9890829444 -6.64772322766 
2.07604880058 1.0911671556 -1.06781248731 3.24023875405 -1.90976294029 88.583687648 5.89536807218 -22.0950028517 0.803926658885 -0.601845960697 34.2864602183 -12.3212625504 -0.254998655999 -42.644610517 1.72143776284 -3.68480893693 9.77309740977 -2.93514082057 7.25853594607 3.63170506991 -4.64088302214 70.3230676189 -33.335414433 -0.260840708895 7.97027751608 57.9375645781 5.43259458138 -110.223277392 -46.1293218051 -43.6414937018 -169.45995761 72.1198923141 166.193583564 0.824309170668 -0.0936421002942 3.23280174526 0.901061287031 47.1335815942 5.34935293154 -12.246336229 -35.3969840905 -6.52248231771 
2.10512732383 1.09518758028 -1.06221653159 3.31621436328 -2.00349768169 88.7177984123 6.50404294139 -19.7267952665 1.5896924851 -0.581472626981 33.7885018618 -13.3579264645 -0.0712748382581 -44.1678622302 1.76536473711 -3.05332891986 9.76219984295 -2.63366139325 6.87349683822 3.60646325206 -4.14317780949 73.5441780013 -32.9617006325 4.03916213928 7.99983942858 58.5175022801 5.57135926588 -109.91200518 -49.0798986397 -42.2258140529 -168.866523454 70.8044047101 166.795828664 1.47358738006 -3.43441953805 2.97541417723 0.581078930608 51.2969643839 5.26132417285 -12.5533233501 -37.0866157968 -6.96296676682 
